<?xml version="1.0" encoding="UTF-8" standalone="no"?>
<!-- Created with Inkscape (http://www.inkscape.org/) -->

<svg
   xmlns:dc="http://purl.org/dc/elements/1.1/"
   xmlns:cc="http://creativecommons.org/ns#"
   xmlns:rdf="http://www.w3.org/1999/02/22-rdf-syntax-ns#"
   xmlns:svg="http://www.w3.org/2000/svg"
   xmlns="http://www.w3.org/2000/svg"
   xmlns:xlink="http://www.w3.org/1999/xlink"
   xmlns:sodipodi="http://sodipodi.sourceforge.net/DTD/sodipodi-0.dtd"
   xmlns:inkscape="http://www.inkscape.org/namespaces/inkscape"
   width="300"
   height="300"
   id="svg2"
   version="1.1"
   inkscape:version="0.47 r22583"
   sodipodi:docname="onionBox.svg"
   style="display:inline;enable-background:new"
   inkscape:export-filename="/Users/Miles/Sites/milessteele.com/images/onionBox.png"
   inkscape:export-xdpi="90"
   inkscape:export-ydpi="90">
  <sodipodi:namedview
     id="base"
     pagecolor="#000000"
     bordercolor="#666666"
     borderopacity="1.0"
     inkscape:pageopacity="0"
     inkscape:pageshadow="2"
     inkscape:zoom="1.2430979"
     inkscape:cx="134.66868"
     inkscape:cy="179.79702"
     inkscape:document-units="px"
     inkscape:current-layer="layer1"
     showgrid="false"
     inkscape:object-nodes="true"
     inkscape:snap-bbox="false"
     inkscape:snap-grids="true"
     inkscape:snap-to-guides="true"
     inkscape:snap-nodes="true"
     inkscape:snap-global="true"
     inkscape:window-width="1280"
     inkscape:window-height="752"
     inkscape:window-x="0"
     inkscape:window-y="0"
     inkscape:window-maximized="1"
     borderlayer="true"
     inkscape:showpageshadow="false" />
  <defs
     id="defs4">
    <inkscape:path-effect
       effect="envelope"
       id="path-effect3898"
       is_visible="true"
       yy="true"
       xx="true"
       bendpath1="M -164.14028,71.969871 37.917904,163.81716"
       bendpath2="M 41.169135,176.82209 28.16421,224.38212"
       bendpath3="M -160.88905,137.41168 21.661747,231.69739"
       bendpath4="m -156.0122,84.161988 -7.31527,56.500922"
       bendpath1-nodetypes="cc"
       bendpath3-nodetypes="cc"
       bendpath2-nodetypes="cc"
       bendpath4-nodetypes="cc" />
    <inkscape:path-effect
       effect="envelope"
       id="path-effect3896"
       is_visible="true"
       yy="true"
       xx="true"
       bendpath1="M -162.95309,74.171841 40.484406,176.17184"
       bendpath2="m 48.484406,110.17184 c -0.890674,23.76973 -14.574141,161.2195 -4.876847,116.64871"
       bendpath3="M -162.57871,217.51513 5.2331757,265.56931"
       bendpath4="m -164.95309,110.17184 0,54.0625"
       bendpath1-nodetypes="cc"
       bendpath3-nodetypes="cc"
       bendpath2-nodetypes="cc" />
    <inkscape:path-effect
       effect="envelope"
       id="path-effect3819"
       is_visible="true"
       yy="true"
       xx="true"
       bendpath1="M 225.92495,256.40836 465.33324,109.1492"
       bendpath2="M 477.70119,97.821574 474.16748,506.56012"
       bendpath3="M 227.6918,653.81928 458.26583,506.56012"
       bendpath4="M 241.82661,254.52042 222.39125,642.49165"
       bendpath1-nodetypes="cc"
       bendpath2-nodetypes="cc"
       bendpath3-nodetypes="cc"
       bendpath4-nodetypes="cc" />
    <inkscape:path-effect
       effect="construct_grid"
       id="path-effect3817"
       is_visible="true"
       nr_x="5"
       nr_y="5" />
    <linearGradient
       id="linearGradient4306">
      <stop
         style="stop-color:#625037;stop-opacity:1;"
         offset="0"
         id="stop4308" />
      <stop
         id="stop4314"
         offset="0.69767439"
         style="stop-color:#a58354;stop-opacity:1;" />
      <stop
         style="stop-color:#625037;stop-opacity:1;"
         offset="1"
         id="stop4310" />
    </linearGradient>
    <linearGradient
       id="linearGradient4213">
      <stop
         style="stop-color:#000000;stop-opacity:0.16260162;"
         offset="0"
         id="stop4215" />
      <stop
         style="stop-color:#000000;stop-opacity:0;"
         offset="1"
         id="stop4217" />
    </linearGradient>
    <linearGradient
       id="linearGradient3716">
      <stop
         id="stop3718"
         offset="0"
         style="stop-color:#e7c4ab;stop-opacity:1;" />
      <stop
         style="stop-color:#af7c5a;stop-opacity:1"
         offset="1"
         id="stop3720" />
    </linearGradient>
    <linearGradient
       id="linearGradient3703">
      <stop
         style="stop-color:#e6c4ac;stop-opacity:1;"
         offset="0"
         id="stop3705" />
      <stop
         id="stop3707"
         offset="1"
         style="stop-color:#a17f68;stop-opacity:1;" />
    </linearGradient>
    <linearGradient
       id="linearGradient3681">
      <stop
         id="stop3683"
         offset="0"
         style="stop-color:#000000;stop-opacity:1;" />
      <stop
         id="stop3685"
         offset="1"
         style="stop-color:#000000;stop-opacity:0;" />
    </linearGradient>
    <linearGradient
       id="linearGradient3659">
      <stop
         id="stop3661"
         offset="0"
         style="stop-color:#c2aa99;stop-opacity:1;" />
      <stop
         style="stop-color:#926a4f;stop-opacity:1;"
         offset="1"
         id="stop3663" />
    </linearGradient>
    <linearGradient
       id="linearGradient3631">
      <stop
         style="stop-color:#76675d;stop-opacity:1;"
         offset="0"
         id="stop3641" />
      <stop
         id="stop3635"
         offset="1"
         style="stop-color:#53443a;stop-opacity:1;" />
    </linearGradient>
    <inkscape:perspective
       id="perspective10"
       inkscape:persp3d-origin="372.04724 : 350.78739 : 1"
       inkscape:vp_z="744.09448 : 526.18109 : 1"
       inkscape:vp_y="0 : 1000 : 0"
       inkscape:vp_x="0 : 526.18109 : 1"
       sodipodi:type="inkscape:persp3d" />
    <radialGradient
       gradientUnits="userSpaceOnUse"
       gradientTransform="matrix(1.3674934,0.44027697,-0.51101682,1.5872104,-0.2331048,-254.75364)"
       r="99.119102"
       fy="581.79095"
       fx="180.45149"
       cy="581.79095"
       cx="180.45149"
       id="radialGradient3639"
       xlink:href="#linearGradient3659"
       inkscape:collect="always" />
    <radialGradient
       gradientUnits="userSpaceOnUse"
       gradientTransform="matrix(0.75242889,0.10510566,-0.22850238,1.6357994,-55.635102,-282.70952)"
       r="79.684731"
       fy="621.29742"
       fx="414.81311"
       cy="621.29742"
       cx="414.81311"
       id="radialGradient3651"
       xlink:href="#linearGradient3631"
       inkscape:collect="always" />
    <radialGradient
       gradientUnits="userSpaceOnUse"
       gradientTransform="matrix(1.5576556,0.04115004,-0.00857579,0.32462026,-329.6998,467.55515)"
       r="130.95255"
       fy="325.42932"
       fx="185.3533"
       cy="325.42932"
       cx="185.3533"
       id="radialGradient3687"
       xlink:href="#linearGradient3703"
       inkscape:collect="always" />
    <radialGradient
       gradientUnits="userSpaceOnUse"
       gradientTransform="matrix(1.3639419,0.10212443,-0.01948656,0.26025622,-292.5067,466.5347)"
       r="128.78468"
       fy="367.16971"
       fx="190.44495"
       cy="367.16971"
       cx="190.44495"
       id="radialGradient3701"
       xlink:href="#linearGradient3703"
       inkscape:collect="always" />
    <filter
       inkscape:collect="always"
       id="filter4278"
       x="-0.21573003"
       width="1.43146"
       y="-0.14071134"
       height="1.2814227"
       color-interpolation-filters="sRGB">
      <feGaussianBlur
         inkscape:collect="always"
         stdDeviation="7.7549795"
         id="feGaussianBlur4280" />
    </filter>
    <filter
       inkscape:collect="always"
       id="filter4282"
       x="-0.19402684"
       width="1.3880537"
       y="-0.12489082"
       height="1.2497816"
       color-interpolation-filters="sRGB">
      <feGaussianBlur
         inkscape:collect="always"
         stdDeviation="4.5209629"
         id="feGaussianBlur4284" />
    </filter>
    <linearGradient
       inkscape:collect="always"
       xlink:href="#linearGradient4306"
       id="linearGradient4312"
       x1="242.23383"
       y1="430.66541"
       x2="410.33234"
       y2="371.66541"
       gradientUnits="userSpaceOnUse"
       gradientTransform="matrix(0.75973446,0,0,0.75973446,-184.59332,288.19951)" />
    <inkscape:perspective
       id="perspective4452"
       inkscape:persp3d-origin="0.5 : 0.33333333 : 1"
       inkscape:vp_z="1 : 0.5 : 1"
       inkscape:vp_y="0 : 1000 : 0"
       inkscape:vp_x="0 : 0.5 : 1"
       sodipodi:type="inkscape:persp3d" />
    <mask
       maskUnits="userSpaceOnUse"
       id="mask4464">
      <path
         sodipodi:nodetypes="cccccscccsccc"
         id="path4466"
         d="m 333.34375,358.375 -180.8125,29.3125 86.97401,40.44693 105.96349,49.45932 -192.9375,-89.90625 c 0,0 -7.71833,28.10605 0.53125,81.8125 8.27425,53.86708 0.46875,143.4375 0.46875,143.4375 L 346.46875,705.875 502.03125,619 c 0,0 -4.04061,-103.1904 0,-147.46875 4.04061,-44.27835 0,-81.84375 0,-81.84375 l -91.9375,-17.0625 -76.75,-14.25 z"
         style="fill:#ffffff;fill-opacity:1;stroke:none" />
    </mask>
    <filter
       inkscape:collect="always"
       id="filter4492"
       color-interpolation-filters="sRGB">
      <feBlend
         inkscape:collect="always"
         mode="screen"
         in2="BackgroundImage"
         id="feBlend4494" />
    </filter>
    <linearGradient
       id="RSSg"
       y2="225.94"
       x2="225.94"
       y1="30.059999"
       x1="30.059999"
       gradientUnits="userSpaceOnUse">
      <stop
         id="stop2958"
         stop-color="#E3702D"
         offset="0.0" />
      <stop
         id="stop2960"
         stop-color="#EA7D31"
         offset="0.1071" />
      <stop
         id="stop2962"
         stop-color="#F69537"
         offset="0.3503" />
      <stop
         id="stop2964"
         stop-color="#FB9E3A"
         offset="0.5" />
      <stop
         id="stop2966"
         stop-color="#EA7C31"
         offset="0.7016" />
      <stop
         id="stop2968"
         stop-color="#DE642B"
         offset="0.8866" />
      <stop
         id="stop2970"
         stop-color="#D95B29"
         offset="1.0" />
    </linearGradient>
    <inkscape:perspective
       id="perspective2988"
       inkscape:persp3d-origin="64 : 42.666667 : 1"
       inkscape:vp_z="128 : 64 : 1"
       inkscape:vp_y="0 : 1000 : 0"
       inkscape:vp_x="0 : 64 : 1"
       sodipodi:type="inkscape:persp3d" />
    <filter
       inkscape:collect="always"
       id="filter3792"
       x="-0.036660656"
       width="1.0733213"
       y="-0.13477506"
       height="1.2695501"
       color-interpolation-filters="sRGB">
      <feGaussianBlur
         inkscape:collect="always"
         stdDeviation="5.3234327"
         id="feGaussianBlur3794" />
    </filter>
    <filter
       inkscape:collect="always"
       id="filter3868"
       color-interpolation-filters="sRGB">
      <feGaussianBlur
         inkscape:collect="always"
         stdDeviation="6.9601904"
         id="feGaussianBlur3870" />
    </filter>
  </defs>
  <metadata
     id="metadata7">
    <rdf:RDF>
      <cc:Work
         rdf:about="">
        <dc:format>image/svg+xml</dc:format>
        <dc:type
           rdf:resource="http://purl.org/dc/dcmitype/StillImage" />
        <dc:title></dc:title>
      </cc:Work>
    </rdf:RDF>
  </metadata>
  <g
     style="display:inline"
     inkscape:label="box_bg"
     inkscape:groupmode="layer"
     id="g3619"
     transform="translate(86.746562,-539.60622)">
    <path
       style="fill:none;stroke:none;filter:url(#filter3868)"
       d="m 381.49873,334.95951 -182.43981,31.61555 c 0,0 -3.70931,31.41787 4.61451,85.60767 8.34872,54.35189 -3.60551,141.66958 -3.60551,141.66958 l 348.57764,3.05821 c 0,0 -7.13582,-100.04064 -3.05885,-144.71749 4.07698,-44.67686 -6.11772,-88.69806 -6.11772,-88.69806 L 458.93948,351.377 381.49873,334.95951 z"
       id="path3621"
       transform="matrix(0.74407447,0,0,0.74407447,-215.28527,314.2713)"
       sodipodi:nodetypes="ccsccsccc" />
    <path
       id="path3766"
       d="M -67.057629,818.98734 129.87009,915.93323 288.43678,828.04425 C 192.93383,822.88437 -5.501255,814.07027 -67.057629,818.98734 z"
       style="fill:#000000;fill-opacity:1;stroke:none;filter:url(#filter3792)"
       sodipodi:nodetypes="cccc"
       transform="matrix(0.75973446,0,0,0.75973446,-19.272396,132.40476)" />
  </g>
  <g
     style="display:inline"
     id="layer1"
     inkscape:groupmode="layer"
     inkscape:label="box"
     transform="translate(86.746562,-539.60622)">
    <path
       id="path3615"
       d="m 126.97561,571.30299 c -26.20837,22.87553 -62.903973,40.89523 -129.608526,42.165 l -66.075803,-30.73325 c 42.270572,1.82259 82.428457,9.19097 137.373132,-22.25599 l 58.311197,10.82424 z"
       style="fill:url(#radialGradient3701);fill-opacity:1;stroke:none"
       sodipodi:nodetypes="ccccc" />
    <path
       sodipodi:nodetypes="czcccc"
       id="path2818"
       d="m -68.708719,582.73474 c 0,0 -6.012386,48.25566 -2.088259,89.45149 3.930137,41.25894 2.855713,81.68935 2.855713,81.68935 L 78.641239,824.48076 77.873793,651.03758 -68.708719,582.73474 z"
       style="fill:url(#radialGradient3639);fill-opacity:1;stroke:none" />
    <path
       style="fill:url(#linearGradient4312);fill-opacity:1;stroke:none"
       d="m 3.8255714,616.12854 c 41.5820146,1.06124 83.8628206,1.55684 127.1233886,-44.24499 l -8.41734,-1.29497 c -45.730473,42.7182 -87.289122,35.37449 -129.9291651,41.00755 l 11.2231165,4.53241 z"
       id="path4262"
       sodipodi:nodetypes="ccccc" />
    <path
       sodipodi:nodetypes="ccccc"
       id="path2816"
       d="M -1.1845506,614.67496 C 60.641891,612.931 103.26089,602.51422 130.04809,573.00992 l 66.78009,11.25971 C 181.18201,628.50525 130.44504,685.69803 77.873793,651.03758 35.618491,631.45907 29.18806,630.79598 -1.1845506,614.67496 z"
       style="fill:url(#radialGradient3687);fill-opacity:1;stroke:none" />
    <path
       sodipodi:nodetypes="cczccc"
       id="path2820"
       d="m 77.873793,651.03758 c 38.564527,13.00078 80.499937,-11.9316 118.954387,-66.76795 0,0 3.06979,28.52348 0,62.16327 -3.06979,33.63979 0,112.04736 0,112.04736 L 78.641239,824.48076 77.873793,651.03758 z"
       style="fill:url(#radialGradient3651);fill-opacity:1;stroke:none" />
    <g
       style="display:inline;enable-background:new"
       id="g2999"
       transform="matrix(0.37986723,0,0,0.37986723,-0.04110471,566.38479)">
      <g
         style="font-size:80px;font-style:normal;font-variant:normal;font-weight:normal;font-stretch:normal;text-align:start;line-height:125%;writing-mode:lr-tb;text-anchor:start;fill:#3f332a;fill-opacity:0.53811657;stroke:none;font-family:HeadLineA;-inkscape-font-specification:HeadLineA"
         id="text3857"
         transform="translate(-12,-8.1165847)"
         inkscape:path-effect="#path-effect3898">
        <path
           d="m -137.27156,99.846882 c -2.87994,-1.003999 -5.7566,-1.960443 -8.63136,-2.86018 0.17863,4.367888 0.0492,8.382258 -0.22974,12.188008 2.60706,0.77566 5.21041,1.5992 7.81141,2.46375 -0.25187,3.79946 -0.65732,7.41351 -1.09057,10.98118 -2.6172,-0.88362 -5.24098,-1.72628 -7.87303,-2.5208 -0.98105,7.76827 -2.00148,15.18631 -2.0599,23.4703 -4.16207,-1.72595 -8.36585,-3.34558 -12.62242,-4.82266 -0.11221,-4.46085 0.18644,-8.74884 0.68236,-13.08519 0.49593,-4.33635 1.18912,-8.72105 1.79156,-13.41141 0.60244,-4.69037 1.11414,-9.68639 1.17265,-15.281492 0.0585,-5.595101 -0.33615,-11.789279 -1.62086,-18.912051 6.8862,1.981325 13.82054,4.347964 20.81776,6.962228 1.08347,5.434069 1.63391,10.314188 1.85214,14.828317 z"
           id="path3882"
           inkscape:original-d="m -141.28122,120.95309 -9.6875,0 0,10.23438 8.67188,0 0,10.23437 -8.67188,0 0,22.57813 -13.98437,0 0,-53.75 23.67187,0 0,10.70312"
           style="fill:#3f332a;fill-opacity:0.53811657" />
        <path
           d="m -109.06201,163.088 c -3.70172,-1.95672 -7.4131,-3.89891 -11.14069,-5.80903 0.65831,-8.52104 1.63975,-15.84605 2.53083,-22.90548 0.2648,-2.09797 0.19527,-3.56794 -0.19293,-4.43289 -0.38824,-0.86492 -1.3788,-1.62047 -2.96908,-2.25497 -0.49195,4.33813 -1.07821,8.66355 -1.61872,13.21223 -0.54051,4.54867 -1.03526,9.3206 -1.39328,14.52794 -4.03171,-2.03482 -8.08489,-4.02497 -12.16883,-5.9431 0.21468,-5.39298 0.67427,-10.35726 1.22297,-15.16163 0.5487,-4.80437 1.18651,-9.44884 1.68319,-14.23829 0.49668,-4.78945 0.85224,-9.72389 0.76202,-15.14431 -0.0902,-5.420426 -0.62622,-11.326837 -1.98707,-18.096339 2.94494,1.14102 5.90127,2.321314 8.86957,3.533159 7.3857,3.015369 12.32074,5.907956 14.62394,8.341315 1.90356,2.021125 3.51803,4.729185 4.66625,7.928455 1.14823,3.19927 1.82108,6.87497 1.83761,10.86831 0.01,2.37775 -0.15411,4.24756 -0.41632,5.6833 -0.26221,1.43575 -0.62463,2.4345 -1.05558,3.01994 -1.02412,1.39764 -3.05004,1.65154 -6.034,0.82111 2.90117,2.20983 4.69363,4.4864 5.35225,6.79992 0.51884,1.83544 0.50441,4.85378 -0.0988,9.28324 -0.82846,6.08313 -1.71085,12.55364 -2.47333,19.96712 z m -6.9557,-48.45547 c 0.0146,-1.14403 0.0108,-2.30547 -0.0145,-3.48848 -0.0361,-1.68107 -0.26645,-2.97259 -0.63577,-3.81927 -0.52494,-1.16315 -1.47828,-2.0365 -2.83405,-2.58456 -0.18701,-0.0756 -0.37399,-0.15104 -0.56094,-0.22637 0.37124,5.02324 0.31969,9.6021 0.0555,13.99701 1.63741,0.64577 2.68704,0.74382 3.14161,0.27333 0.50435,-0.50977 0.81888,-1.86356 0.84813,-4.15166 z"
           id="path3884"
           inkscape:original-d="m -104.71872,163.99997 -12.96875,0 0,-19.45313 c -2e-5,-1.92706 -0.26044,-3.2031 -0.78125,-3.82812 -0.52085,-0.62498 -1.66668,-0.93748 -3.4375,-0.9375 l 0,24.21875 -13.98437,0 0,-53.75 9.92187,0 c 8.22915,5e-5 13.46352,0.54693 15.70313,1.64062 3.69788,1.82297 5.54684,6.14588 5.54687,12.96875 -3e-5,4.06254 -0.4167,6.77087 -1.25,8.125 -0.98961,1.61462 -3.12503,2.6042 -6.40625,2.96875 3.3333,0.88545 5.49476,2.21357 6.48438,3.98438 0.78121,1.40627 1.17184,4.06252 1.17187,7.96875 l 0,16.09375 m -12.96875,-37.42188 0,-2.96875 c -2e-5,-1.4062 -0.18231,-2.39579 -0.54687,-2.96875 -0.52086,-0.7812 -1.53648,-1.17183 -3.04688,-1.17187 l -0.625,0 0,11.875 c 1.8229,3e-5 2.96873,-0.28643 3.4375,-0.85938 0.52081,-0.62496 0.78123,-1.92704 0.78125,-3.90625"
           style="fill:#3f332a;fill-opacity:0.53811657" />
        <path
           d="m -76.120666,180.59118 c -4.071713,-2.12885 -8.136038,-4.28089 -12.199265,-6.44496 0.513832,-4.89581 0.999671,-9.3692 1.448429,-13.55784 -1.485787,-0.72506 -2.97139,-1.44926 -4.457055,-2.172 -0.850497,3.94316 -1.720276,8.15016 -2.586658,12.74381 -4.108158,-2.1955 -8.218465,-4.39648 -12.338825,-6.58438 1.19035,-5.99112 2.46938,-11.34114 3.73057,-16.34652 1.26119,-5.00538 2.50453,-9.66611 3.563501,-14.32736 1.058967,-4.66124 1.933552,-9.32299 2.397197,-14.37908 0.463644,-5.05608 0.516348,-10.50649 -0.128468,-16.79375 6.214461,2.75771 12.480924,5.57298 18.795837,8.42339 1.637449,6.78422 2.612573,12.70324 3.193386,18.23255 0.580813,5.52932 0.767315,10.66892 0.737633,15.87003 -0.02968,5.20111 -0.275549,10.46373 -0.649361,16.21481 -0.373812,5.75108 -0.87557,11.99062 -1.506921,19.1213 z m -9.281498,-31.6418 c 0.261674,-4.6942 0.512704,-9.64086 0.491727,-15.19704 -0.0083,-2.8069 -0.08733,-5.14107 -0.16659,-6.97784 -0.07926,-1.83677 -0.156117,-3.17016 -0.173611,-3.94935 -0.132714,1.42084 -0.322328,3.28058 -0.635448,5.52891 -0.31312,2.24833 -0.7523,4.8792 -1.370728,7.91477 -0.828966,3.92601 -1.695873,7.4439 -2.468086,10.67694 1.440595,0.66529 2.881455,1.33332 4.322736,2.00361 z"
           id="path3886"
           inkscape:original-d="m -66.124969,163.99997 -14.296875,0 -0.703125,-9.6875 -5.078125,0 -0.78125,9.6875 -14.453126,0 7.109376,-53.75 20.234375,0 7.96875,53.75 m -15.390625,-19.29688 c -0.468771,-3.95831 -0.93752,-8.35934 -1.40625,-13.20312 -0.468769,-4.8958 -0.703144,-7.99475 -0.703125,-9.29688 -0.364602,2.50004 -0.885435,6.64066 -1.5625,12.42188 -0.468767,3.75003 -0.859392,7.1094 -1.171875,10.07812 l 4.84375,0"
           style="fill:#3f332a;fill-opacity:0.53811657" />
        <path
           d="m -40.857743,176.39347 c -1.343004,5.97307 -3.389739,10.49493 -5.787886,12.71894 -1.547695,1.4088 -3.460538,2.18117 -5.711044,2.21981 -2.250507,0.0386 -4.838174,-0.65879 -7.770801,-2.13256 -2.731172,-1.37254 -4.966693,-3.33438 -6.752588,-5.79984 -1.785916,-2.46545 -2.868708,-5.47523 -3.2801,-8.83277 -0.315157,-2.28493 -0.396189,-4.52455 -0.241365,-6.70779 0.200716,-2.16092 0.557027,-4.63147 1.041753,-7.34764 0.22032,-1.23459 0.378134,-2.14037 0.482211,-2.74244 1.061529,-6.14088 1.915327,-11.79786 2.361829,-17.70719 0.157583,-2.0856 0.258408,-4.14628 0.299883,-6.20581 0.09055,-2.09779 0.232748,-3.84051 0.47803,-5.18198 0.55829,-3.60032 1.810011,-6.08087 4.038411,-7.13012 2.277459,-1.02664 5.34343,-0.72905 9.267224,1.064 2.508239,1.14627 4.792519,2.61248 6.819852,4.37454 2.027332,1.76206 3.79702,3.8189 5.265379,6.10194 1.468334,2.2831 2.5662,4.74867 3.25215,7.31474 0.68595,2.56607 0.959845,5.22858 0.785013,7.94439 -0.136421,2.11895 -0.325851,4.1693 -0.560365,6.18779 -4.037356,-1.94193 -8.066169,-3.8637 -12.08544,-5.76913 0.178144,-1.77769 0.32016,-3.57796 0.419644,-5.42422 0.147598,-2.73956 -0.05268,-4.94276 -0.492431,-6.48585 -0.391299,-1.5838 -1.169501,-2.66725 -2.289953,-3.19194 -0.876904,-0.41052 -1.417209,-0.0772 -1.646994,0.9612 -0.181276,1.06122 -0.268422,2.91402 -0.365617,5.44298 -0.204841,5.32897 -0.770056,10.25873 -1.557165,15.31379 -0.787109,5.05506 -1.796111,10.23541 -2.971986,16.02508 -0.690927,3.40184 -0.416545,5.59339 0.91458,6.23553 1.055684,0.50929 1.994737,0.14046 2.806182,-1.04528 0.825878,-1.25376 1.501026,-3.09658 1.987406,-5.44017 0.538933,-2.59694 1.037508,-5.07712 1.492412,-7.48924 -1.105366,-0.52284 -2.210033,-1.04518 -3.314024,-1.56702 0.575154,-3.12316 1.079212,-6.13382 1.493792,-9.1404 4.938531,2.3334 9.890917,4.68677 14.856557,7.06568 -0.822309,5.24142 -1.912785,10.49222 -3.234549,16.37098 z"
           id="path3888"
           inkscape:original-d="m -30.499969,149.70309 c -3.5e-5,4.94793 -0.963576,8.46355 -2.890625,10.54688 -2.50003,2.65625 -7.161484,3.98437 -13.984375,3.98437 -3.177099,0 -5.963554,-0.46875 -8.359375,-1.40625 -2.395841,-0.93749 -4.140631,-2.44791 -5.234375,-4.53125 -0.781254,-1.40624 -1.302087,-2.91665 -1.5625,-4.53125 -0.208337,-1.61457 -0.312503,-3.56769 -0.3125,-5.85937 -3e-6,-1.04165 -3e-6,-1.8229 0,-2.34375 l 0,-15.9375 c -3e-6,-1.87496 -3e-6,-3.69788 0,-5.46875 0.05208,-1.82288 0.234372,-3.33329 0.546875,-4.53125 0.729162,-3.17704 2.395827,-5.54683 5,-7.10938 2.656239,-1.56244 6.041652,-2.34369 10.15625,-2.34375 5.260393,6e-5 9.34893,1.19797 12.265625,3.59375 2.916633,2.39589 4.374965,5.96359 4.375,10.70313 l 0,5.54687 -13.125,0 0,-4.84375 c -2.2e-5,-2.39579 -0.234397,-4.14058 -0.703125,-5.23437 -0.416688,-1.14579 -1.223979,-1.7187 -2.421875,-1.71875 -0.937518,5e-5 -1.536476,0.46879 -1.796875,1.40625 -0.208351,0.93754 -0.312517,2.50004 -0.3125,4.6875 l 0,27.65625 c -1.7e-5,2.70834 0.75519,4.06251 2.265625,4.0625 1.197896,1e-5 2.083312,-0.54687 2.65625,-1.64063 0.572894,-1.14582 0.859352,-2.68227 0.859375,-4.60937 l 0,-6.40625 -3.671875,0 0,-8.28125 16.25,0 0,14.60937"
           style="fill:#3f332a;fill-opacity:0.53811657" />
        <path
           d="m -28.592689,203.86956 c -4.104507,-1.8697 -8.187122,-3.76115 -12.25037,-5.68067 1.758023,-7.03324 3.24397,-13.05082 4.522131,-18.50281 1.278161,-5.45198 2.348536,-10.33836 3.200994,-15.14529 0.852458,-4.80694 1.486999,-9.53442 1.819073,-14.70471 0.332073,-5.1703 0.361679,-10.78341 -0.07015,-17.39769 4.491122,2.10048 8.993828,4.22907 13.502916,6.39848 0.240225,6.67684 0.07789,12.29138 -0.355838,17.42488 -0.433727,5.1335 -1.138847,9.78597 -2.058612,14.50256 -0.919766,4.71658 -2.054176,9.49728 -3.420905,14.85116 -1.366728,5.35388 -2.965775,11.28092 -4.889234,18.25409 z"
           id="path3890"
           inkscape:original-d="m -11.203094,163.99997 -13.984375,0 0,-53.75 13.984375,0 0,53.75"
           style="fill:#3f332a;fill-opacity:0.53811657" />
        <path
           d="M -0.80199464,216.17393 C -8.8203761,212.68355 -16.749351,209.21783 -24.595892,205.6806 c 1.973091,-6.93874 3.605435,-12.82359 4.998137,-18.13491 1.392701,-5.31133 2.545759,-10.04914 3.485857,-14.72989 0.940097,-4.68076 1.667234,-9.30446 2.133671,-14.42369 0.466437,-5.11923 0.672175,-10.73398 0.495055,-17.43295 4.5125766,2.1977 9.0296651,4.44125 13.54493296,6.749 -0.03011654,10.84592 -0.85663288,18.73219 -2.18382036,26.12741 -1.3271875,7.39522 -3.1550461,14.29939 -5.6776997,22.94343 3.8387351,1.79865 7.68981445,3.61361 11.5525285,5.4577 -1.2980852,4.13733 -2.78911224,8.69543 -4.55476404,13.93723 z"
           id="path3892"
           inkscape:original-d="m 19.968781,163.99997 -26.6406255,0 0,-53.75 13.984375,0 0,43.04687 12.6562505,0 0,10.70313"
           style="fill:#3f332a;fill-opacity:0.53811657" />
        <path
           d="m 25.248227,227.65359 c -7.434778,-3.36947 -14.800383,-6.58245 -22.092655,-9.75712 2.2477355,-6.49587 4.051124,-11.91229 5.5729339,-16.7804 1.5218101,-4.86812 2.7620411,-9.18793 3.8090421,-13.52669 1.047001,-4.33877 1.900772,-8.69648 2.575239,-13.67651 0.674467,-4.98003 1.169631,-10.58237 1.424999,-17.44648 7.491819,4.15854 14.954367,8.57113 22.348377,13.37254 -0.448529,5.56715 -0.976534,10.22844 -1.573011,14.32812 -2.886761,-1.91289 -5.781938,-3.76576 -8.683359,-5.56742 -0.527956,3.95931 -1.137788,7.43811 -1.837323,10.71822 2.70346,1.63411 5.403872,3.30963 8.099787,5.03362 -0.711413,3.18766 -1.502283,6.15191 -2.413167,9.16877 -2.695105,-1.60257 -5.391202,-3.16313 -8.087205,-4.68844 -1.05798,3.65777 -2.280008,7.4116 -3.759685,11.66225 3.124536,1.57463 6.255234,3.18333 9.391032,4.83621 -1.337004,3.62319 -2.891894,7.63546 -4.775005,12.32333 z"
           id="path3894"
           inkscape:original-d="m 48.484406,163.99997 -24.140625,0 0,-53.75 23.28125,0 0,10.70312 -9.296875,0 0,10.23438 8.75,0 0,10.23437 -8.75,0 0,11.875 10.15625,0 0,10.70313"
           style="fill:#3f332a;fill-opacity:0.53811657" />
      </g>
    </g>
    <path
       sodipodi:nodetypes="ccsscsccc"
       id="path3844"
       d="m 30.049735,652.27414 c 59.91612,20.97064 85.879755,39.94409 85.879755,39.94409 0,0 1.99721,99.86019 -2.9958,91.87137 -4.99301,-7.98881 -5.99161,-32.95386 -3.99441,-37.94687 1.9972,-4.99301 2.9958,-23.96645 2.9958,-23.96645 0,0 -5.15168,-22.7672 -8.98742,-25.96365 -5.991605,-4.99301 -19.972035,-8.98741 -19.972035,-8.98741 l -18.97342,-12.98184 -33.95247,-21.96924 z"
       style="opacity:0.32000002;fill:#26201c;fill-opacity:1;stroke:none;filter:url(#filter4278)"
       transform="matrix(0.75973446,0,0,0.75973446,-19.272396,132.40476)" />
    <path
       style="fill:#625037;fill-opacity:1;stroke:none;display:inline"
       d="m -7.3975451,611.59613 -1.3039702,10.10799 1.8165555,-2.29317 0.6205131,5.51263 1.7536115,-4.43349 0.7381352,2.32717 1.9290113,-0.28756 -0.050218,4.04857 1.94246625,-2.35614 0.80936031,2.74282 2.53599364,-11.26807 -10.7914582,-4.10075 z"
       id="path4264"
       sodipodi:nodetypes="cccccccccccc" />
    <path
       id="path3922"
       d="m 279.70021,820.03927 -55.9217,27.96086 14.97902,-13.98043 27.96086,-17.97483 4.99301,-20.97065 -1.9972,-33.95246 9.98601,58.91751 z"
       style="opacity:0.64888886;fill:#26201c;fill-opacity:1;stroke:none;filter:url(#filter4282)"
       transform="matrix(0.75973446,0,0,0.75973446,-19.272396,132.40476)" />
  </g>
</svg>
